<svg width="295" height="183" viewBox="0 0 295 183" fill="none" xmlns="http://www.w3.org/2000/svg">
<path d="M0.28814 131.5C-2.51186 157.1 15.288 182.5 45.2881 182.5H259.288C271.122 177.667 294.788 160.7 294.788 131.5C294.788 102.3 264.122 87.3333 248.788 83.5C245.288 26 211.788 1.28856e-05 171.788 1.28856e-05C139.788 1.28856e-05 111.788 33.3333 101.788 50C86.2882 36.5 73.2577 34.6619 60.7882 41.5C45.2881 50 41.7882 66.3333 39.2882 77.5C25.2882 78.5 3.78814 99.5 0.28814 131.5Z" fill="#A874D2"/>
<path d="M37.712 121.488H37.904C39.184 119.952 41.104 117.008 43.344 117.008C47.12 117.008 47.12 122.832 47.376 125.328L47.568 125.456C50 121.808 55.12 112.592 60.112 112.592C62.544 112.592 64.208 115.152 64.208 117.456C64.208 123.472 62.928 129.296 62.928 135.248C62.928 138.128 64.592 141.008 64.592 143.632C64.592 146.512 62.288 147.92 59.728 147.92C54.672 147.92 53.328 142.864 53.328 138.576C53.328 132.752 55.12 127.376 55.76 121.68C53.904 124.112 48.08 135.12 45.84 135.12C43.408 135.12 42.704 131.408 42.448 128.016C42.128 123.024 41.04 121.872 38.672 127.312C36.816 131.792 36.24 138.768 34.192 144.4C33.744 145.68 32.464 146.704 30.992 146.704C28.112 146.704 27.216 144.464 27.216 141.904C27.216 139.28 27.856 136.4 28.176 133.84C28.88 127.632 28.752 121.936 28.752 115.92C28.752 113.04 30.48 110.672 33.36 110.672C39.248 110.672 38.096 117.584 37.712 121.488ZM67.487 123.152C68.063 118.48 78.047 116.56 77.023 123.856C76.511 128.528 76.319 135.12 76.511 139.024C76.831 143.824 75.615 144.336 72.927 144.592C70.943 144.848 69.023 142.736 68.319 139.856C66.783 134.608 66.591 125.968 67.487 123.152ZM72.543 116.432C70.047 116.304 68.319 114.256 68.511 111.504C68.831 108.624 70.751 106.512 73.375 106.768C75.871 107.088 77.983 109.072 77.663 111.888C77.407 114.64 74.975 116.688 72.543 116.432ZM83.7285 143.76C82.1925 143.76 80.6565 142.736 80.6565 141.072C80.6565 138.704 80.9125 136.336 81.1685 134.032C81.2965 132.56 81.5525 125.776 81.0405 122.128C80.5285 118.288 86.9285 114.576 87.8245 120.272C88.0165 121.68 88.0165 123.28 88.2085 124.24C89.9365 122.128 93.2645 117.584 96.2085 117.584C98.8965 117.584 101.073 118.8 101.905 121.616C103.441 126.8 101.905 135.504 101.905 138.64C101.905 140.816 102.609 141.712 102.609 143.376C102.609 145.424 100.689 146.512 98.8965 146.512C95.0565 146.512 93.4565 143.248 93.4565 137.552C93.4565 136.016 93.6485 134.032 93.9045 132.112C94.6725 126.16 93.9685 124.112 92.4325 126.224C90.0005 129.68 88.5925 134.096 87.9525 138.192C87.4405 141.328 86.4805 143.76 83.7285 143.76ZM120.768 115.28H121.088C121.728 111.504 123.968 101.392 129.152 100.88C132.416 100.688 133.248 102.928 132.8 105.232C131.2 112.272 126.464 129.872 127.808 139.216C128.448 143.696 130.752 142.864 130.944 144.976C131.136 146.32 129.856 147.536 128.32 147.728C124.032 148.112 122.368 143.888 120.96 141.136C119.296 142.672 118.016 144.144 115.392 144.4C109.056 145.04 106.304 137.36 105.856 132.944C105.024 126.288 107.84 115.728 116.736 114.832C118.208 114.704 119.36 114.96 120.768 115.28ZM118.848 122.256C114.432 122.704 113.92 132.112 114.176 134.864C114.368 135.888 114.88 138.448 116.48 138.256C119.744 138 123.328 123.344 118.848 122.256ZM136.128 107.664C137.984 103.504 144.384 104.08 143.488 109.904C141.12 124.752 141.312 135.248 142.016 144.464C142.144 146.256 141.248 147.664 139.072 147.856C128 148.816 134.08 112.464 136.128 107.664ZM154.105 135.44C154.873 140.752 160.761 135.888 163.129 133.136C164.537 131.408 166.585 129.744 168.377 131.536C169.401 132.432 169.785 134.032 169.145 135.568C168.313 137.424 166.649 139.92 164.153 141.904C156.025 148.496 146.105 145.232 145.849 134.224C145.785 130.64 146.425 126.992 147.385 124.432C148.601 121.168 150.521 118.352 153.529 116.752C159.481 113.552 166.137 116.176 166.137 123.216C166.137 129.872 159.609 133.52 154.105 135.44ZM155.577 128.976C157.305 128.208 159.993 125.968 159.993 123.92C159.993 123.408 159.481 122.832 158.905 122.832C157.049 122.832 155.641 127.632 155.577 128.976ZM179.002 132.048C176.378 131.792 169.978 132.24 169.978 128.272C169.978 124.432 174.074 124.88 176.634 124.88H179.13C180.09 119.76 183.226 101.328 189.882 101.328C192.058 101.328 194.106 103.184 194.106 105.36C194.106 107.28 189.882 120.976 189.178 124.368C191.354 124.368 196.794 123.856 196.794 127.312C196.794 130.64 190.65 130.512 188.154 130.832C187.898 131.984 187.77 133.072 187.77 134.16C187.77 137.104 188.73 143.632 190.778 145.744C191.354 146.256 191.802 146.896 191.802 147.728C191.802 149.968 189.498 150.992 187.642 150.992C179.834 150.992 179.386 137.488 179.002 132.048ZM197.46 123.152C198.036 118.48 208.02 116.56 206.996 123.856C206.484 128.528 206.292 135.12 206.484 139.024C206.804 143.824 205.588 144.336 202.9 144.592C200.916 144.848 198.996 142.736 198.292 139.856C196.756 134.608 196.564 125.968 197.46 123.152ZM202.516 116.432C200.02 116.304 198.292 114.256 198.484 111.504C198.804 108.624 200.724 106.512 203.348 106.768C205.844 107.088 207.956 109.072 207.636 111.888C207.38 114.64 204.948 116.688 202.516 116.432ZM222.917 138.896C228.677 138.896 229.445 127.504 233.605 127.504C235.973 127.504 237.253 130.128 237.253 132.368C237.253 139.344 230.213 147.28 223.045 147.28C215.045 147.28 210.693 138.448 210.693 131.408C210.693 122.256 216.965 107.6 227.845 107.6C233.157 107.6 237.573 111.824 237.573 117.136C237.573 119.184 236.485 122.704 234.117 122.704C230.213 122.704 232.581 116.752 228.293 116.752C220.741 116.752 215.173 138.896 222.917 138.896ZM243.402 150.416C241.61 150.416 239.37 148.56 239.37 146.512C239.37 144.336 243.146 142.096 245.77 140.304C249.61 137.68 248.138 136.848 245.066 134.544C242.762 132.88 240.202 131.216 240.202 126.864C240.202 120.912 246.218 111.312 252.746 111.312C255.114 111.312 257.418 113.168 257.418 115.728C257.418 119.184 248.778 121.552 248.778 127.312C248.778 130 256.65 134.48 256.65 139.728C256.65 145.424 248.522 150.416 243.402 150.416Z" fill="white"/>
<ellipse cx="6.5" cy="7.5" rx="6.5" ry="7.5" transform="matrix(-1 0 0 1 80 103)" fill="black"/>
<circle cx="2" cy="2" r="2" transform="matrix(-1 0 0 1 77.2883 106.123)" fill="white"/>
<ellipse cx="6.5" cy="7.5" rx="6.5" ry="7.5" transform="matrix(-1 0 0 1 210 103)" fill="black"/>
<circle cx="2" cy="2" r="2" transform="matrix(-1 0 0 1 207.289 106.123)" fill="white"/>
</svg>
